<svg height="512pt" viewBox="0 0 512 512" width="512pt" xmlns="http://www.w3.org/2000/svg"><path d="m226 0h-60l-30 119.4375 30 95.585938 60-39.996094zm0 0" fill="#d03b00"/><path d="m16 0v175.027344l60 39.996094 30-107.511719-30-107.511719zm0 0" fill="#ff4b00"/><path d="m166 0v215l-33 21.898438-12-.597657-14.097656-.902343-30.902344-20.398438v-215zm0 0" fill="#ff7816"/><path d="m133 236.898438-12-.597657v-236.300781h45v215zm0 0" fill="#ff4b00"/><path d="m121 212c-24.902344 0-45 20.101562-45 45s20.097656 45 45 45 45-20.101562 45-45-20.097656-45-45-45zm0 60c-8.269531 0-15-6.730469-15-15s6.730469-15 15-15 15 6.730469 15 15-6.730469 15-15 15zm0 0" fill="#fdbf00"/><path d="m121 212v30c8.269531 0 15 6.730469 15 15s-6.730469 15-15 15v30c24.902344 0 45-20.101562 45-45s-20.097656-45-45-45zm0 0" fill="#ff9f00"/><path d="m241 366.800781-83.402344-12.300781-36.597656-75.902344-38.402344 75.902344-82.597656 12.300781 59.5 59.097657-14.402344 86.101562 75.902344-42 74.097656 42-14.398437-86.101562zm0 0" fill="#ffd400"/><path d="m180.699219 425.898438 14.398437 86.101562-74.097656-42v-191.402344l36.597656 75.902344 83.402344 12.300781zm0 0" fill="#fdbf00"/><path d="m494.5 152c-7.5 50.699219-50.699219 90-103.5 90s-96-39.300781-103.5-90l103.5-30zm0 0" fill="#ff4b00"/><path d="m496 0v60l-105 30-105-30v-60zm0 0" fill="#ff4b00"/><path d="m496 60v77c0 5.097656-.902344 10.199219-1.5 15h-207c-.597656-4.800781-1.5-9.902344-1.5-15v-77zm0 0" fill="#ff7816"/><path d="m391 242v-120l103.5 30c-7.5 50.699219-50.699219 90-103.5 90zm0 0" fill="#d03b00"/><path d="m391 212c-24.902344 0-45 20.101562-45 45s20.097656 45 45 45 45-20.101562 45-45-20.097656-45-45-45zm0 60c-8.269531 0-15-6.730469-15-15s6.730469-15 15-15 15 6.730469 15 15-6.730469 15-15 15zm0 0" fill="#fdbf00"/><path d="m391 212v30c8.269531 0 15 6.730469 15 15s-6.730469 15-15 15v30c24.902344 0 45-20.101562 45-45s-20.097656-45-45-45zm0 0" fill="#ff9f00"/><path d="m496 60-105 30v-90h105zm0 0" fill="#d03b00"/><path d="m496 60v77c0 5.097656-.902344 10.199219-1.5 15h-103.5v-92zm0 0" fill="#ff4b00"/><path d="m391 272c-66.300781 0-120 53.699219-120 120s53.699219 120 120 120 121-53.699219 121-120-54.699219-120-121-120zm0 0" fill="#ffd400"/><path d="m512 392c0 66.300781-54.699219 120-121 120v-240c66.300781 0 121 53.699219 121 120zm0 0" fill="#fdbf00"/><path d="m391 332c-33 0-60 27-60 60s27 60 60 60 60-27 60-60-27-60-60-60zm0 0" fill="#fdbf00"/><path d="m451 392c0 33-27 60-60 60v-120c33 0 60 27 60 60zm0 0" fill="#ff9f00"/></svg>